<svg width="16" height="26" viewBox="0 0 16 26" fill="none" xmlns="http://www.w3.org/2000/svg">
<path fill-rule="evenodd" clip-rule="evenodd" d="M9.53028 0.0337594C8.87543 -0.108087 8.33683 0.224672 7.99406 0.518345C7.63653 0.824665 7.28766 1.26104 6.94164 1.75422C6.25121 2.7383 5.38821 4.22104 4.28927 6.10917L1.14218 11.5162C0.77854 12.1408 0.4529 12.7002 0.255311 13.1652C0.0605306 13.6235 -0.159033 14.3202 0.165847 15.0286C0.509474 15.7779 1.19659 15.9829 1.66837 16.0577C2.12609 16.1302 2.72069 16.1301 3.36138 16.13L6.37421 16.1299L5.98171 18.2929C5.61298 20.3249 5.31999 21.9395 5.22551 23.0653C5.17873 23.6228 5.16771 24.1825 5.27507 24.6527C5.39117 25.1613 5.71918 25.8037 6.46972 25.9662C7.12457 26.1081 7.66317 25.7753 8.00594 25.4817C8.36347 25.1753 8.71234 24.739 9.05836 24.2458C9.74879 23.2617 10.6118 21.779 11.7107 19.8909L14.8578 14.4839C15.2214 13.8592 15.5471 13.2998 15.7447 12.8348C15.9395 12.3764 16.159 11.6798 15.8342 10.9714C15.4905 10.2221 14.8034 10.0171 14.3316 9.94233C13.8739 9.86981 13.2793 9.86991 12.6386 9.87001L9.62581 9.87006L10.0183 7.70709C10.387 5.67508 10.68 4.06052 10.7745 2.93472C10.8213 2.37725 10.8323 1.81755 10.7249 1.34726C10.6088 0.838725 10.2808 0.196333 9.53028 0.0337594Z" fill="#212135"/>
</svg>
