<svg width="24" height="24" viewBox="0 0 24 24" fill="none" xmlns="http://www.w3.org/2000/svg">
<path d="M7.00002 9C7.00002 7.89543 7.89545 7 9.00002 7C10.1046 7 11 7.89543 11 9C11 10.1046 10.1046 11 9.00002 11C7.89545 11 7.00002 10.1046 7.00002 9Z" fill="#212135"/>
<path fill-rule="evenodd" clip-rule="evenodd" d="M1.17424 18.3937C0.953392 18.5986 0.592906 18.5042 0.523634 18.211C0.141906 16.5956 0 14.5579 0 12C0 2.118 2.118 0 12 0C21.882 0 24 2.118 24 12C24 12.033 24 12.0659 23.9999 12.0988C23.9999 12.1025 23.9961 12.1049 23.9927 12.1034C23.3608 11.8155 22.4642 11.4793 21.419 11.3001C19.3006 10.9369 16.5364 11.2256 14.2474 13.8415C12.2901 16.0785 11.4461 16.2565 10.8134 16.2163C10.4746 16.1948 10.1504 16.1095 9.67478 15.9844C9.53117 15.9466 9.37374 15.9052 9.19796 15.8608C8.48506 15.6808 7.61492 15.5 6.50002 15.5C5.62944 15.5 4.76639 15.8402 4.02476 16.2494C3.26718 16.6674 2.53995 17.2117 1.91839 17.7351C1.65311 17.9585 1.40324 18.1813 1.17424 18.3937ZM5.00002 9C5.00002 6.79086 6.79088 5 9.00002 5C11.2092 5 13 6.79086 13 9C13 11.2091 11.2092 13 9.00002 13C6.79088 13 5.00002 11.2091 5.00002 9Z" fill="#212135"/>
<path d="M1.79086 20.5844C1.66146 20.7168 1.64205 20.9223 1.75139 21.0716C3.41705 23.3465 6.51067 24 12 24C21.041 24 23.5833 22.2271 23.9505 14.3576C23.9511 14.3447 23.9447 14.332 23.9337 14.3252L23.9184 14.3159C23.8863 14.2964 23.8352 14.2661 23.7667 14.2277C23.6295 14.1507 23.424 14.0421 23.1636 13.9234C22.6393 13.6845 21.9109 13.4136 21.0811 13.2713C19.4494 12.9916 17.4637 13.203 15.7526 15.1585C13.71 17.493 12.304 18.315 10.6867 18.2123C10.1336 18.1772 9.56442 18.0259 9.05709 17.8911C8.93703 17.8592 8.82044 17.8282 8.70834 17.7999C8.07748 17.6406 7.38513 17.5 6.50002 17.5C6.1206 17.5 5.60865 17.6598 4.99091 18.0006C4.38912 18.3326 3.77259 18.7883 3.20666 19.2649C2.6442 19.7386 2.15248 20.2151 1.80047 20.5746C1.79726 20.5779 1.79405 20.5812 1.79086 20.5844Z" fill="#212135"/>
</svg>
