<svg width="24" height="24" viewBox="0 0 24 24" fill="none" xmlns="http://www.w3.org/2000/svg">
<path fill-rule="evenodd" clip-rule="evenodd" d="M12 0C21.882 0 24 1.77781 24 10.6667C24 16.4445 23.0002 20 18.5002 20C16.0954 20 15.3801 21.1424 14.714 22.2061C14.1336 23.1329 13.5906 24 12.0002 24C10.41 24 9.86699 23.1329 9.28663 22.2061C8.62048 21.1424 7.9051 20 5.50024 20C1.00024 20 0 16.3307 0 10.6667C0 1.88267 2.118 0 12 0ZM11 8C11 7.44772 10.5523 7 10 7H7C6.44772 7 6 7.44772 6 8C6 8.55228 6.44772 9 7 9H10C10.5523 9 11 8.55228 11 8ZM17 11C17.5523 11 18 11.4477 18 12C18 12.5523 17.5523 13 17 13H7C6.44772 13 6 12.5523 6 12C6 11.4477 6.44771 11 7 11H17Z" fill="#212135"/>
</svg>
