<svg width="22" height="21" viewBox="0 0 22 21" fill="none" xmlns="http://www.w3.org/2000/svg">
<path d="M4.22754 16.1968C0.994391 15.4457 0 13.3488 0 10.5015C0 6.90323 2.10507 4.49769 7.2754 4.49769C10.0905 4.49769 11.0663 3.16437 11.9553 1.94964C12.6992 0.933318 13.3822 0 15.0309 0C16.5655 0 17.6354 0.808658 18.3587 2.19791L20.2768 0.297755C20.671 -0.0927694 21.3101 -0.0927695 21.7043 0.297755C22.0986 0.688279 22.0986 1.32144 21.7043 1.71197L4.16024 19.0919C3.76603 19.4824 3.12688 19.4824 2.73267 19.0919C2.33846 18.7014 2.33846 18.0682 2.73267 17.6777L4.22754 16.1968Z" fill="#212135"/>
<path d="M19.5939 7.68122C19.5364 6.86211 18.552 6.53114 17.9659 7.11174L9.8657 15.1362C9.27407 15.7223 9.63225 16.7671 10.353 17.1881C11.2395 17.7058 11.7272 18.441 12.1829 19.1279C12.837 20.1138 13.4249 21 15.0309 21C18.6501 21 19.6842 16.5053 19.6842 10.5015C19.6842 9.51645 19.6564 8.57196 19.5939 7.68122Z" fill="#212135"/>
</svg>
