<svg width="29" height="21" viewBox="0 0 29 21" fill="none" xmlns="http://www.w3.org/2000/svg">
<path d="M7.31709 16.4994C1.59713 16.4994 0 14.0997 0 10.5015C0 6.90323 2.11713 4.49768 7.31709 4.49768C10.1483 4.49768 11.1297 3.16437 12.0238 1.94964C12.7719 0.933318 13.4589 0 15.117 0C18.757 0 19.797 4.49768 19.797 10.5015C19.797 16.5053 18.757 21 15.117 21C13.5018 21 12.9105 20.1138 12.2527 19.1279C11.4281 17.892 10.4989 16.4993 7.31709 16.4994Z" fill="#212135"/>
<path d="M24.2816 2.23807C24.7088 1.88038 25.3495 1.93154 25.7126 2.35235L24.9391 3C25.7126 2.35235 25.7126 2.35227 25.7126 2.35235L25.7144 2.35439L25.7179 2.35843L25.7298 2.37237L25.7723 2.42261C25.8086 2.46565 25.8601 2.52736 25.9233 2.60455C26.0494 2.75864 26.2232 2.97592 26.4155 3.23053C26.7911 3.72783 27.2724 4.41331 27.5928 5.06325C28.4667 6.83635 29 8.20467 29 10.5C29 12.7953 28.4667 14.1636 27.5928 15.9368C27.2724 16.5867 26.7911 17.2722 26.4155 17.7695C26.2232 18.0241 26.0494 18.2414 25.9233 18.3955C25.8601 18.4726 25.8086 18.5344 25.7723 18.5774L25.7298 18.6276L25.7179 18.6416L25.7144 18.6456L25.7133 18.6469C25.7132 18.647 25.7126 18.6477 24.9391 18L25.7126 18.6477C25.3495 19.0685 24.7088 19.1196 24.2816 18.7619C23.8544 18.4043 23.8024 17.7734 24.1653 17.3526L24.1671 17.3505L24.1753 17.341L24.2098 17.3002C24.2405 17.2637 24.2859 17.2094 24.3425 17.1402C24.4559 17.0016 24.6131 16.8052 24.7865 16.5757C25.1422 16.1047 25.5311 15.5402 25.7662 15.0632C26.57 13.4324 26.9695 12.3755 26.9695 10.5C26.9695 8.62453 26.57 7.56761 25.7662 5.93675C25.5311 5.45984 25.1422 4.89532 24.7865 4.42432C24.6131 4.1948 24.4559 3.99836 24.3425 3.85977C24.2859 3.79062 24.2405 3.73626 24.2098 3.6998L24.1753 3.65903L24.1671 3.64951L24.1655 3.64765C23.8025 3.22685 23.8544 2.59572 24.2816 2.23807Z" fill="#212135"/>
<path d="M23.7105 6.48102C23.4195 6.00893 22.7951 5.85859 22.3158 6.14522C21.8366 6.43182 21.6839 7.04679 21.9748 7.51886L21.9767 7.52196L21.9867 7.53846C21.9959 7.55372 22.0099 7.57717 22.0275 7.60735C22.0629 7.66797 22.1123 7.75441 22.1668 7.85539C22.2809 8.0668 22.3969 8.30475 22.4636 8.49431C22.7214 9.2266 22.8427 9.67651 22.8427 10.5C22.8427 11.3235 22.7214 11.7734 22.4636 12.5057C22.3969 12.6952 22.2809 12.9332 22.1668 13.1446C22.1123 13.2456 22.0629 13.332 22.0275 13.3926C22.0099 13.4228 21.9959 13.4463 21.9867 13.4615L21.9767 13.478L21.9749 13.481C21.6843 13.953 21.8367 14.5683 22.3158 14.8548C22.7951 15.1414 23.4195 14.9911 23.7105 14.519L22.914 14.0427C23.7105 14.519 23.7104 14.5191 23.7105 14.519L23.7129 14.515L23.7176 14.5073L23.7334 14.4813C23.7465 14.4595 23.7648 14.4288 23.7871 14.3907C23.8315 14.3147 23.8924 14.2081 23.9598 14.0831C24.0896 13.8427 24.2636 13.4973 24.382 13.161C24.6835 12.3047 24.8731 11.6229 24.8731 10.5C24.8731 9.37711 24.6835 8.69525 24.382 7.83902C24.2636 7.50272 24.0896 7.15733 23.9598 6.91687C23.8924 6.79192 23.8315 6.6853 23.7871 6.60933C23.7648 6.57122 23.7465 6.5405 23.7334 6.51867L23.7176 6.49269L23.7129 6.485L23.7105 6.48102C23.7104 6.48095 23.7105 6.48102 22.8427 7L23.7105 6.48102Z" fill="#212135"/>
</svg>
