<svg width="24" height="24" viewBox="0 0 24 24" fill="none" xmlns="http://www.w3.org/2000/svg">
<path d="M14.2532 15.9239C14.5498 15.9239 14.7815 16.1808 14.7458 16.4753C14.5115 18.4083 14.128 20.1079 13.6501 21.4583C13.2415 22.6128 12.8014 23.4051 12.4123 23.8701C12.3436 23.9522 12.2408 23.9967 12.1337 23.9973C12.0893 23.9975 12.0447 23.9977 12 23.9977C11.9553 23.9977 11.9107 23.9975 11.8663 23.9973C11.7592 23.9967 11.6564 23.9522 11.5877 23.8701C11.1986 23.4051 10.7585 22.6128 10.3499 21.4583C9.872 20.1079 9.48851 18.4083 9.25415 16.4753C9.21845 16.1808 9.45019 15.9239 9.74683 15.9239H14.2532Z" fill="#212135"/>
<path d="M17.2714 15.9239C17.0142 15.9239 16.7993 16.1194 16.7709 16.375C16.4838 18.9568 15.9416 21.2192 15.2276 22.926C15.0706 23.3014 15.3783 23.7222 15.7765 23.6386C19.8365 22.7864 22.3932 20.417 23.4465 16.5303C23.5302 16.2215 23.2923 15.9239 22.9723 15.9239H17.2714Z" fill="#212135"/>
<path d="M23.9464 13.4521C23.9281 13.7093 23.7119 13.9054 23.454 13.9054H17.4837C17.1989 13.9054 16.9719 13.6679 16.9807 13.3832C16.9935 12.9718 17 12.5554 17 12.1347C17 11.5465 16.9873 10.9666 16.9626 10.3973C16.9501 10.1102 17.178 9.86863 17.4654 9.86863H23.454C23.7119 9.86863 23.9281 10.0647 23.9464 10.322C23.9821 10.8256 24 11.3473 24 11.887C24 12.4267 23.9821 12.9484 23.9464 13.4521Z" fill="#212135"/>
<path d="M14.9782 13.4286C14.9692 13.6955 14.7489 13.9054 14.4818 13.9054H9.51816C9.25107 13.9054 9.03079 13.6955 9.02176 13.4286C9.0074 13.004 9 12.5724 9 12.1347C9 11.5235 9.01443 10.924 9.04212 10.3387C9.05462 10.0746 9.27371 9.86863 9.53819 9.86863H14.4618C14.7263 9.86863 14.9454 10.0746 14.9579 10.3387C14.9856 10.924 15 11.5235 15 12.1347C15 12.5724 14.9926 13.004 14.9782 13.4286Z" fill="#212135"/>
<path d="M6.51627 13.9054C6.80109 13.9054 7.02807 13.6679 7.01925 13.3832C7.00651 12.9718 7 12.5554 7 12.1347C7 11.5465 7.01272 10.9666 7.03743 10.3973C7.04988 10.1102 6.82196 9.86863 6.53463 9.86863H0.546038C0.288133 9.86863 0.0718838 10.0647 0.0536232 10.322C0.0178744 10.8256 0 11.3473 0 11.887C0 12.4267 0.0178755 12.9484 0.0536264 13.4521C0.0718876 13.7093 0.288136 13.9054 0.546041 13.9054H6.51627Z" fill="#212135"/>
<path d="M1.02767 15.9239C0.707707 15.9239 0.469792 16.2215 0.553486 16.5303C1.60679 20.417 4.16345 22.7864 8.22348 23.6386C8.62172 23.7222 8.92938 23.3014 8.77236 22.926C8.05843 21.2192 7.51615 18.9568 7.22908 16.375C7.20065 16.1194 6.98577 15.9239 6.72857 15.9239H1.02767Z" fill="#212135"/>
<path d="M13.6501 2.81114C14.0861 4.04324 14.4436 5.56597 14.6808 7.29144C14.7217 7.5883 14.489 7.85018 14.1893 7.85018H9.81069C9.51104 7.85018 9.27833 7.5883 9.31916 7.29144C9.55644 5.56597 9.91388 4.04324 10.3499 2.81114C10.7585 1.65659 11.1986 0.864337 11.5877 0.39933C11.6638 0.308343 11.7308 0.237757 11.7885 0.183097C11.9098 0.068067 12.0902 0.0680669 12.2115 0.183097C12.2692 0.237757 12.3362 0.308343 12.4123 0.39933C12.8014 0.864337 13.2415 1.65659 13.6501 2.81114Z" fill="#212135"/>
<path d="M16.7131 7.40604C16.7448 7.65857 16.9584 7.85018 17.2129 7.85018H22.9723C23.2923 7.85018 23.5302 7.55257 23.4465 7.24375C22.3729 3.28226 19.7376 0.896962 15.5404 0.0878584C15.1298 0.0086995 14.8258 0.459904 15.0037 0.838344C15.7807 2.49059 16.3816 4.76797 16.7131 7.40604Z" fill="#212135"/>
<path d="M0.55348 7.24375C0.469787 7.55257 0.707695 7.85018 1.02766 7.85018H6.78711C7.04163 7.85018 7.25516 7.65857 7.28689 7.40604C7.61836 4.76797 8.21935 2.49059 8.99626 0.838345C9.17421 0.459904 8.8702 0.00869957 8.45957 0.0878585C4.26242 0.896962 1.62705 3.28226 0.55348 7.24375Z" fill="#212135"/>
<path d="M12.0483 0.000266617C12.0482 -0.000656972 12.0483 0.00119021 12.0483 0.000266617V0.000266617Z" fill="#212135"/>
<path d="M11.9517 0.000266736C11.9518 -0.000656994 11.9517 0.00119064 11.9517 0.000266736V0.000266736Z" fill="#212135"/>
</svg>
